<svg preserveAspectRatio="none" overflow="visible" style="display: block;" width="10" height="10" viewBox="0 0 10 10" fill="none" xmlns="http://www.w3.org/2000/svg">
<g id="Icon">
<path id="Vector" d="M7.97535 5.39158C7.99201 5.26658 8.00035 5.13741 8.00035 4.99991C8.00035 4.86658 7.99201 4.73325 7.97118 4.60825L8.81701 3.94991C8.89201 3.89158 8.91285 3.77908 8.86701 3.69575L8.06701 2.31241C8.01701 2.22075 7.91285 2.19158 7.82118 2.22075L6.82535 2.62075C6.61701 2.46241 6.39618 2.32908 6.15035 2.22908L6.00035 1.17075C5.98368 1.07075 5.90035 0.999913 5.80035 0.999913H4.20035C4.10035 0.999913 4.02118 1.07075 4.00451 1.17075L3.85451 2.22908C3.60868 2.32908 3.38368 2.46658 3.17951 2.62075L2.18368 2.22075C2.09201 2.18741 1.98785 2.22075 1.93785 2.31241L1.14201 3.69575C1.09201 3.78325 1.10868 3.89158 1.19201 3.94991L2.03785 4.60825C2.01701 4.73325 2.00035 4.87075 2.00035 4.99991C2.00035 5.12908 2.00868 5.26658 2.02951 5.39158L1.18368 6.04991C1.10868 6.10825 1.08785 6.22075 1.13368 6.30408L1.93368 7.68741C1.98368 7.77908 2.08785 7.80825 2.17951 7.77908L3.17535 7.37908C3.38368 7.53741 3.60451 7.67075 3.85035 7.77075L4.00035 8.82908C4.02118 8.92908 4.10035 8.99991 4.20035 8.99991H5.80035C5.90035 8.99991 5.98368 8.92908 5.99618 8.82908L6.14618 7.77075C6.39201 7.67075 6.61701 7.53741 6.82118 7.37908L7.81701 7.77908C7.90868 7.81241 8.01285 7.77908 8.06285 7.68741L8.86285 6.30408C8.91285 6.21241 8.89201 6.10825 8.81285 6.04991L7.97535 5.39158ZM5.00035 6.49991C4.17535 6.49991 3.50035 5.82491 3.50035 4.99991C3.50035 4.17491 4.17535 3.49991 5.00035 3.49991C5.82535 3.49991 6.50035 4.17491 6.50035 4.99991C6.50035 5.82491 5.82535 6.49991 5.00035 6.49991Z" fill="#FF520D"/>
</g>
</svg>
